<svg version="1.2" xmlns="http://www.w3.org/2000/svg" viewBox="0 0 2570 708" width="2570" height="708">
	<style>
		.s0 { fill: #ffffff } 
		.s1 { fill: #ffffff } 
	</style>
	<path id="Layer" class="s0" d="m1285 708c-195.1 0-353.5-158.4-353.5-353.5 0-195.1 158.4-353.5 353.5-353.5 195.1 0 353.5 158.4 353.5 353.5 0 195.1-158.4 353.5-353.5 353.5zm0-629.2c-152.1 0-275.7 123.6-275.7 275.7 0 152.1 123.6 275.7 275.7 275.7 152.1 0 275.7-123.6 275.7-275.7 0-152.1-123.6-275.7-275.7-275.7z"/>
	<path id="Layer" class="s1" d="m948 708c-21.5 0-38.9-17.4-38.9-38.9v-630.2c0-21.5 17.4-38.9 38.9-38.9 21.5 0 38.9 17.4 38.9 38.9v630.2c0 21.5-17.4 38.9-38.9 38.9z"/>
	<path id="Layer" class="s1" d="m1622 708c-21.5 0-38.9-17.4-38.9-38.9v-630.2c0-21.5 17.4-38.9 38.9-38.9 21.5 0 38.9 17.4 38.9 38.9v630.2c0 21.5-17.4 38.9-38.9 38.9z"/>
	<path id="Layer" class="s1" d="m609 708c-21.5 0-38.9-17.4-38.9-38.9v-630.2c0-21.5 17.4-38.9 38.9-38.9 21.5 0 38.9 17.4 38.9 38.9v630.2c0 21.5-17.4 38.9-38.9 38.9z"/>
	<path id="Layer" class="s1" d="m1961 708c-21.5 0-38.9-17.4-38.9-38.9v-630.2c0-21.5 17.4-38.9 38.9-38.9 21.5 0 38.9 17.4 38.9 38.9v630.2c0 21.5-17.4 38.9-38.9 38.9z"/>
	<path id="Layer" class="s1" d="m270 708c-21.5 0-38.9-17.4-38.9-38.9v-630.2c0-21.5 17.4-38.9 38.9-38.9 21.5 0 38.9 17.4 38.9 38.9v630.2c0 21.5-17.4 38.9-38.9 38.9z"/>
	<path id="Layer" class="s1" d="m2300 708c-21.5 0-38.9-17.4-38.9-38.9v-630.2c0-21.5 17.4-38.9 38.9-38.9 21.5 0 38.9 17.4 38.9 38.9v630.2c0 21.5-17.4 38.9-38.9 38.9z"/>
</svg>