<svg version="1.2" xmlns="http://www.w3.org/2000/svg" viewBox="0 0 2570 708" width="2570" height="708">
	<style>
		.s0 { fill: #1d22a9 } 
		.s1 { fill: #1d21aa } 
	</style>
	<path fill-rule="evenodd" class="s0" d="m1302 332c128.72 0 128.72 0 153 12 0.96 0.44 0.96 0.44 1.94 0.89 7.82 3.71 15.55 8.39 22.06 14.11q0 0.99 0 2 0.86 0.37 1.75 0.75c2.58 1.43 4.31 3.03 6.25 5.25q0 0.99 0 2 1.48 0.49 3 1c1.56 2.06 2.95 4.07 4.31 6.25q0.59 0.94 1.2 1.91c8.86 14.39 13.93 29.9 14.49 46.84q0.06 1.55 0.12 3.15c0.46 23.67-4.7 46.03-18.12 65.85q-0.98 0-2 0-0.37 1.08-0.75 2.19c-1.37 3.09-2.97 5.32-5.25 7.81q-0.98 0-2 0-0.49 1.48-1 3c-5.47 5-5.47 5-8 5q0 0.98 0 2c-2.24 1.54-4.47 2.94-6.81 4.31q-1.03 0.61-2.09 1.23c-10.74 6.22-23.36 12.46-36.1 12.46q0 0.98 0 2 0.98 0 2 0c1.33 1.36 1.33 1.36 2.81 3.19 3.26 3.92 6.57 7.57 10.63 10.69 2.67 2.21 4.75 4.56 6.94 7.24 2.09 2.42 4.35 4.63 6.62 6.88q1.12 1.11 2.27 2.26c1.16 1.15 1.16 1.15 2.34 2.31q6.51 6.47 13.01 12.95 3.92 3.91 7.86 7.8 3.81 3.79 7.62 7.59 1.45 1.44 2.9 2.88 2.03 2.01 4.04 4.02 1.14 1.14 2.32 2.31c1.64 1.88 1.64 1.88 1.64 3.88q0.86 0.37 1.75 0.75c2.58 1.43 4.31 3.03 6.25 5.25q0 0.99 0 2 0.86 0.37 1.75 0.75c2.58 1.43 4.31 3.03 6.25 5.25q0 0.99 0 2 0.86 0.37 1.75 0.75c2.58 1.43 4.31 3.03 6.25 5.25q0 0.99 0 2 0.92 0.37 1.88 0.75c2.49 1.47 2.95 2.66 4.12 5.25-54.13 4.17-54.13 4.17-65.73-4.91-5.88-5.14-10.18-11.49-14.27-18.09-2.5-3.34-5.15-6.35-8.44-8.94-3.11-2.57-5.6-5.37-8.17-8.48-1.46-1.75-1.46-1.75-3.83-3.52-2.19-1.77-3.74-3.37-5.54-5.51-5.14-5.95-10.81-11.37-16.43-16.87q-2.13-2.08-4.24-4.17c-1.26-1.23-1.26-1.23-2.53-2.48-1.82-2.03-1.82-2.03-1.82-4.03-0.87-0.37-0.87-0.37-1.75-0.75-2.58-1.43-4.31-3.03-6.25-5.25q0-0.98 0-2-1.48-0.49-3-1 0-0.98 0-2-0.98 0-2 0c-1.37-1.41-1.37-1.41-3-3.39-2.81-3.31-5.75-6.39-8.87-9.41q-1.26-1.21-2.55-2.46-2.62-2.52-5.26-5.03-1.23-1.2-2.51-2.44-1.13-1.09-2.29-2.2c-1.52-2.07-1.52-2.07-1.36-4.18 1.15-2.6 2.64-4.81 4.28-7.14q0.92-1.33 1.87-2.7c0.84-1.02 0.84-1.02 1.69-2.05q0.98 0 2 0 0.98-2.46 2-5 0.86-0.07 1.75-0.14c25.63-2.03 53.38-4.34 72.61-23.39 1.64-1.47 1.64-1.47 3.64-1.47q0.39-0.83 0.79-1.68c1.36-2.61 2.95-4.99 4.59-7.44 10.24-16.09 12.49-36.74 8.38-55.33-2.34-7.87-5.19-14.5-10.76-20.55q0-0.99 0-2-1.48-0.49-3-1 0-0.99 0-2-1.97-0.49-4-1 0-0.99 0-2-1.03-0.4-2.1-0.82-3-1.22-5.96-2.55c-30.42-13.57-60.05-10.86-93.94-11.63 0 88.11 0 176.22 0 267-14.19 0-28.38 0-43 0 0-100.98 0-201.96 0-306zm-473 0c139.31 0 139.31 0 167 27q0 0.99 0 2 0.86 0.37 1.75 0.75c2.58 1.43 4.31 3.03 6.25 5.25q0 0.99 0 2 0.98 0 2 0c1.51 1.9 1.51 1.9 3.13 4.38q0.8 1.21 1.63 2.46c1.24 2.16 1.24 2.16 1.24 4.16q0.98 0 2 0c8.3 16.27 14.1 32.42 14.2 50.87q0.01 1.25 0.02 2.55 0.01 2.66 0.02 5.32 0.02 3.99 0.07 7.98c0.15 23.43-5.88 42.94-17.31 63.28q-0.98 0-2 0-0.37 1.08-0.75 2.19c-1.37 3.09-2.97 5.32-5.25 7.81q-0.98 0-2 0c-0.4 0.89-0.4 0.89-0.8 1.8-6.6 12.08-26.03 20.82-38.2 25.2q-0.93 0.34-1.88 0.68c-20.95 7.42-43.14 7.76-65.12 7.51-7.59-0.06-15.18-0.13-23-0.19 0 27.39 0 54.78 0 83-14.19 0-28.38 0-43 0 0-100.98 0-201.96 0-306zm43 39c0 47.52 0 95.04 0 144 52.95 2.52 52.95 2.52 96.81-20.44 2.41-2.25 2.41-2.25 2.19-4.56q0.98 0 2 0 1.91-3.75 3.81-7.5 0.53-1.04 1.08-2.11c9.63-19.09 11.56-44.43 4.97-64.94-2-5.31-4.28-10.39-6.86-15.45q-0.98 0-2 0c-0.49-1.98-0.49-1.98-1-4q-0.98 0-2 0 0-0.99 0-2-0.98 0-2 0c-0.49-1.49-0.49-1.49-1-3q-0.98 0-2 0c-0.49-1.49-0.49-1.49-1-3-27.02-20.31-60.77-17-93-17zm964-39c55.77 0 111.54 0 169 0 0 13.2 0 26.4 0 40-41.58 0-83.16 0-126 0 0 30.03 0 60.06 0 91 37.95 0 75.9 0 115 0 0 12.87 0 25.74 0 39-37.95 0-75.9 0-115 0 0 31.68 0 63.36 0 96 41.58 0 83.16 0 126 0 0 13.2 0 26.4 0 40-55.77 0-111.54 0-169 0 0-100.98 0-201.96 0-306zm-83-1q1.67 0.44 3.39 0.9c8.47 2.39 15.86 6.01 23.61 10.1q3 1.51 6 3c-0.62 3.96-1.86 7.14-3.62 10.75q-0.78 1.61-1.59 3.28-0.82 1.68-1.66 3.41c-0.82 1.68-0.82 1.68-1.65 3.39q-3.69 7.61-7.48 15.17c-2.69-1.04-5.31-2.14-7.92-3.37-9.45-4.36-18.89-6.66-29.08-8.63q-1.09-0.26-2.22-0.53c-3.74-0.63-7.45-0.67-11.24-0.71q-1.22-0.01-2.48-0.02-2.61-0.02-5.22-0.04-2.62-0.01-5.25-0.06c-11.89-0.2-22.19 0.85-33.59 4.36q-1.67 0.5-3.39 1.01c-16.08 4.88-29.84 14.08-41.94 25.59-1.67 1.4-1.67 1.4-3.67 1.4q-0.35 0.82-0.71 1.66c-1.63 2.96-3.69 5.24-5.91 7.78-8.43 9.9-14.01 20.33-18.38 32.56q-0.8 1.75-1.62 3.56c-8.06 20.14-8.28 47.63-2.38 68.44q0.29 1.04 0.59 2.12c4.46 15.77 11.48 29.89 21.76 42.66 1.65 2.22 1.65 2.22 1.65 4.22q0.98 0 2 0c1.48 1.54 1.48 1.54 3.19 3.63 2.92 3.46 5.97 6.35 9.52 9.14q0.64 0.61 1.29 1.23 0 0.98 0 2 1.1 0.39 2.23 0.8c2.76 1.2 4.76 2.56 7.15 4.39 18.58 13.29 40.87 18.44 63.37 18.25q1.11-0.01 2.25-0.01c20.23-0.12 38.68-3.79 56.17-14.45 1.93-1.03 3.7-1.49 5.83-1.98q0.59 0.98 1.21 1.98 2.74 4.51 5.48 9.02 0.93 1.54 1.89 3.12 0.92 1.51 1.87 3.07 0.9 1.48 1.82 3.01 2.3 3.71 4.69 7.36c2.04 3.44 2.04 3.44 2.04 6.44-7.14 6.11-16.37 9.58-24.97 13.14-2.17 0.92-4.3 1.91-6.44 2.9-4.53 2.02-9.09 3.4-13.9 4.59q-1.29 0.31-2.61 0.64c-29.25 6.83-59.67 4.95-88.08-4.27q-1.58-0.49-3.2-1c-12.39-4.15-24-10.75-34.8-18q-0.99-0.62-2-1.25-2.05-1.31-4-2.75 0-0.99 0-2c-0.88-0.4-0.88-0.4-1.78-0.82-6.23-3.32-11.22-9.07-16.22-13.99q-0.74-0.72-1.49-1.46c-1.21-1.2-2.37-2.46-3.51-3.73q0-0.99 0-2-0.98 0-2 0c-3-3.46-3-3.46-3-6q-0.98 0-2 0c-1.41-1.97-2.71-3.95-4-6q-1.02-1.5-2.08-3.05c-18.27-27.45-27.09-58.86-27.11-91.7q-0.02-1.89-0.03-3.84c-0.05-31.77 10.48-61.51 28.22-87.6q0.7-1.03 1.42-2.09c1.14-1.61 2.35-3.17 3.58-4.72q0.98 0 2 0 0.49-1.97 1-4 0.98 0 2 0 0.4-0.88 0.81-1.79c2.01-3.73 5.08-6.43 8.06-9.4 1.01-1 1.01-1 2.05-2.03 5.66-5.53 11.54-10.29 18.08-14.78q1.4-1 2.85-2.04c10.65-7.43 22.12-13.35 34.56-17.16 2.25-0.7 4.4-1.48 6.59-2.36 28.91-10.84 64.73-8.81 94-0.44zm-622 1c9.24 0 18.48 0 28 0 3.01 7.23 5.92 14.3 8.44 21.69q0.9 2.59 1.79 5.19c0.45 1.28 0.45 1.28 0.9 2.59q2.01 5.83 4.06 11.66 0.33 0.96 0.68 1.96 1.87 5.31 3.99 10.52c2.06 5.16 4 10.35 5.89 15.57 0.51 1.4 0.51 1.4 1.03 2.83q1.07 2.94 2.14 5.88 1.61 4.45 3.24 8.9c5.76 15.85 5.76 15.85 8.09 23.03 1.34 4.1 2.95 7.96 4.75 11.88 1.98 4.55 3.48 9.28 5.06 13.99q4.9 14.34 10.13 28.56 0.67 1.82 1.36 3.7 3.57 9.67 7.15 19.34 1.88 5.08 3.75 10.15 1.34 3.63 2.69 7.25c2.63 7.09 5.18 14.19 7.52 21.38 1.56 4.73 3.28 9.23 5.37 13.73 1.99 4.51 3.46 9.22 5.03 13.89q5.26 15.37 10.88 30.62 0.35 0.97 0.72 1.98c2.63 7.25 2.63 7.25 5.48 14.41 0.86 2.3 0.86 2.3 0.86 5.3-14.52 0-29.04 0-44 0-7.98-20.53-7.98-20.53-11.19-30.5-2.11-6.53-4.33-12.95-6.93-19.3-1.44-3.59-2.58-7.27-3.76-10.95-0.92-2.68-1.92-5.28-2.98-7.9-2.27-5.6-4.3-11.28-6.33-16.97q-4.59-12.86-9.44-25.63c-3.21-8.48-6.21-17-8.99-25.63-1.59-4.91-3.38-9.7-5.33-14.48-1.93-4.86-3.67-9.78-5.43-14.7q-0.59-1.65-1.19-3.34-2.91-8.09-5.74-16.2c-2.74-7.82-5.6-15.58-8.5-23.34q-0.6-1.58-1.21-3.22c-1.82-4.99-1.82-4.99-3.98-9.84-3.43 9.25-6.85 18.5-10.13 27.81q-0.36 1.04-0.74 2.11-0.72 2.05-1.43 4.1c-5.28 15.04-5.28 15.04-7.58 20.61-1.89 4.65-3.54 9.37-5.18 14.12-3.05 8.81-6.23 17.57-9.44 26.31q-0.36 0.97-0.72 1.97-3.41 9.26-6.83 18.52-0.88 2.38-1.76 4.76-0.42 1.13-0.85 2.28-3 8.19-5.86 16.44c-2.41 6.85-4.95 13.66-7.48 20.47-2.7 7.25-5.39 14.5-7.94 21.81-2.87 8.24-5.87 16.43-8.87 24.63q-0.37 1.01-0.76 2.06-1.07 2.92-2.14 5.84-0.62 1.7-1.26 3.45c-1.03 2.71-1.03 2.71-2.03 4.71-14.85 0-29.7 0-45 0 3.38-11.25 3.38-11.25 5.14-16.03q0.6-1.64 1.22-3.33 0.65-1.76 1.33-3.58 0.71-1.93 1.42-3.86c4.96-13.44 9.97-26.87 14.97-40.29q9.21-24.76 18.26-49.57 2.05-5.61 4.1-11.21 0.67-1.83 1.36-3.72 4.78-13.01 9.67-25.97c4.42-11.74 8.74-23.51 12.82-35.37q1.68-4.86 3.4-9.69 0.53-1.5 1.07-3.04 1.49-4 3.1-7.96c2.38-5.9 4.51-11.88 6.64-17.88 4.21-11.86 4.21-11.86 6.47-17.42 2.52-6.21 4.73-12.52 6.97-18.83q1.26-3.55 2.52-7.11 1.92-5.4 3.83-10.8 0.63-1.77 1.28-3.61 0.55-1.57 1.12-3.19c1.68-4.55 3.51-9.04 5.31-13.54zm1360 0c0 13.2 0 26.4 0 40-4.76 0.25-9.53 0.5-14.44 0.75-20.05 1.21-43.66 3.91-58.47 19.23-6.6 8.4-8.99 17.43-8.09 28.02 1.19 5.18 3.15 9.52 6 14q0 0.98 0 2 0.98 0 2 0c1.55 1.61 1.55 1.61 3.31 3.75 2.68 3.17 5.43 5.68 8.69 8.25q0 0.98 0 2 0.8 0.37 1.62 0.75c2.96 1.56 5.68 3.28 8.38 5.25q0 0.98 0 2 0.92 0.46 1.87 0.94 2.07 1.03 4.13 2.06 0 0.98 0 2 0.83 0.37 1.69 0.75c7.4 3.99 13.77 10.56 20 16.19q0.79 0.7 1.6 1.43c1.28 1.17 2.5 2.39 3.71 3.63q0 0.98 0 2 0.86 0.36 1.74 0.74c12.64 7.06 22.13 26.37 27.26 39.26 0.47 1.17 0.47 1.17 0.96 2.36 6.17 17.61 5.42 39.07-2.5 55.96-3.59 6.59-7.51 13.02-12.46 18.68q-0.98 0-2 0 0 0.99 0 2c-26.07 23.86-61.35 31.01-95.5 34.19q-1.29 0.12-2.62 0.25c-9.36 0.8-18.38 0.56-27.88 0.56 0-14.19 0-28.38 0-43 6.78-0.43 6.78-0.43 13.69-0.87 44.29-1.25 44.29-1.25 81.31-22.25 5.7-7.1 8.58-14.23 8.31-23.4-1.27-10.2-6.2-20.44-13.53-27.67-1.78-1.81-1.78-1.81-1.78-3.81q-0.98 0-2 0-2.01-2.49-4-5-2.41-2.13-4.94-4.12c-1.45-1.17-1.45-1.17-2.93-2.35q-0.76-0.61-1.54-1.24c-2.76-2.24-5.45-4.55-8.15-6.85-9.43-8.1-9.43-8.1-19.44-15.44q0-0.98 0-2-0.87-0.39-1.77-0.79c-2.39-1.29-3.98-2.7-5.9-4.62q-0.99-0.98-2.01-2-1.02-1.03-2.07-2.09-1.04-1.03-2.11-2.09c-0.99-0.99-0.99-0.99-2-2q-0.9-0.91-1.83-1.84c-1.31-1.57-1.31-1.57-1.31-3.57q-0.98 0-2 0c-1.54-2.1-2.94-4.17-4.31-6.37q-0.6-0.96-1.22-1.94c-11.78-18.93-15.07-38.82-10.47-60.69 2.82-9.59 7.49-17.74 13-26q0.98 0 2 0 0.37-0.86 0.75-1.75c1.43-2.58 3.03-4.31 5.25-6.25q0.98 0 2 0 0.49-1.48 1-3c27.75-22.52 64.59-26.61 99-26zm-439 0c13.86 0 27.72 0 42 0 1 1 1 1 1.12 2.82q0 1.2 0 2.44 0.01 1.38 0.01 2.8c-0.01 1.55-0.01 1.55-0.01 3.12q0 1.62 0 3.28 0 5.49-0.01 10.98 0 3.92 0 7.83 0 8.46 0 16.91-0.02 12.23-0.02 24.45 0 19.83-0.01 39.67-0.02 19.27-0.03 38.53 0 1.2 0 2.43 0 9.37 0 18.75-0.02 46-0.05 91.99c42.24 0 84.48 0 128 0 0 13.2 0 26.4 0 40-56.43 0-112.86 0-171 0 0-100.98 0-201.96 0-306zm210 0c14.19 0 28.38 0 43 0 0 100.98 0 201.96 0 306-14.19 0-28.38 0-43 0 0-100.98 0-201.96 0-306z"/>
	<path fill-rule="evenodd" class="s1" d="m503.63 75.96q4.91-0.01 9.82-0.02 1.17-0.01 2.37-0.01 18.23-0.03 36.47-0.05 3.9 0 7.79-0.01 10.91-0.01 21.82 0 3.18 0 6.36-0.01c47.88-0.04 88.76 9.46 128.74 36.14q1.48 0.99 3 2 0 0.99 0 2 1.08 0.37 2.19 0.75c5.21 2.32 8.87 6.22 12.81 10.25q1.14 1.11 2.32 2.25c1.23 1.21 1.23 1.21 2.49 2.44q1.18 1.14 2.4 2.32c1.79 1.99 1.79 1.99 1.79 3.99q0.99 0 2 0c1.74 1.94 3.35 3.88 4.94 5.94q0.72 0.93 1.47 1.89c21.08 27.62 36.68 60.82 38.15 95.86q0.06 1.46 0.13 2.97c0.29 7.12 0.48 14.21 0.31 21.34q-0.02 1.16-0.04 2.36c-0.5 27.23-6.79 52.66-19.96 76.64q-0.72 1.39-1.45 2.83c-5.45 10.47-12.48 21.52-20.55 30.17q-0.98 0-2 0-0.37 0.86-0.75 1.75c-1.43 2.58-3.03 4.31-5.25 6.25q-0.98 0-2 0-0.37 0.86-0.75 1.75c-1.43 2.58-3.03 4.31-5.25 6.25q-0.98 0-2 0-0.49 1.48-1 3c-5.47 5-5.47 5-8 5q0 0.99 0 2c-27.77 25.66-72.58 40.79-109.71 41.31q-1.87 0.03-3.8 0.06-5.18 0.09-10.35 0.15-3.31 0.05-6.63 0.1c-35.22 0.5-70.45 0.53-105.68 0.52q-9.6-0.01-19.21-0.01c-1.39 0-1.39 0-2.81 0q-2.83 0-5.67 0.01-26.16 0-52.32-0.01-22.38-0.01-44.76 0-26.23 0.01-52.45 0-2.8 0-5.59 0-1.37 0-2.78 0-9.62 0-19.24 0.01-11.68 0-23.36-0.01-5.94 0-11.88 0-5.45 0.01-10.89 0-2.88 0-5.76 0c-23.01-0.05-23.01-0.05-30.11-7.13-7.38-7.49-9.08-14.49-9-25 1.04-6.12 4.76-11.56 9-16q0.99 0 2 0 0-0.98 0-2c7.07-4.18 12.6-5.73 20.77-5.64 1.54-0.02 1.54-0.02 3.11-0.03q5.04-0.03 10.08 0 3.53-0.02 7.07-0.04 9.28-0.05 18.56-0.04 11.24-0.01 22.48-0.07 8.76-0.04 17.51-0.04 3.2-0.01 6.39-0.01 1.41 0 2.86 0c13.98 0.47 13.98 0.47 26.17-5.13q0.99 0 2 0 0-0.98 0-2 0.89-0.83 1.81-1.69c5.09-5.37 5.85-11.04 5.68-18.23-0.93-5.86-3.93-11.16-8.69-14.73q-0.89-0.67-1.8-1.35 0-0.98 0-2c-4.73-1.15-9.44-1.33-14.28-1.55q-1.38-0.06-2.79-0.12c-10.05-0.43-20.09-0.51-30.14-0.56q-5.11-0.03-10.21-0.06-14.49-0.11-28.98-0.19c-47.08-0.26-47.08-0.26-63.03-1.31-1.53-0.08-1.53-0.08-3.1-0.18-6.86-0.55-11.63-2.19-16.61-7.18q-0.83-1.1-1.67-2.22-0.84-1.09-1.71-2.22c-4.43-7.22-4.35-15.19-3.48-23.41 1.27-3.63 2.89-6.79 5-10q0.99 0 2 0 0.31-0.86 0.63-1.75c1.93-3.17 3.96-4.89 7.37-6.25 4.55-0.61 9.07-0.57 13.66-0.55q2.12-0.01 4.23-0.03 5.82-0.04 11.64-0.04 6.28-0.01 12.56-0.06 10.91-0.06 21.81-0.08 15.88-0.04 31.76-0.13 25.91-0.13 51.82-0.21 24.91-0.08 49.83-0.19 1.51-0.01 3.07-0.01 16.74-0.08 33.48-0.15 4.51-0.02 9.01-0.04 2.97-0.01 5.95-0.03 18.61-0.08 37.22-0.15c33.73-0.11 67.45-0.25 101.18-0.67q4.44-0.06 8.88-0.1c24.44 1.35 24.44 1.35 46.9-5.56 5.47-5.75 5.45-12.42 5.43-19.88-0.12-4.38-0.81-8-2.43-12.12q-0.98 0-2 0c-1.62-1.37-1.62-1.37-3-3q0-0.98 0-2-2.03-0.73-4.06-1.44-1.13-0.4-2.29-0.81c-5.39-1.53-10.77-1.88-16.35-1.89q-1.97 0-3.99-0.01-2.18 0-4.35 0-2.33-0.01-4.65-0.01-6.38-0.02-12.76-0.03-6.89-0.01-13.77-0.02-11.95-0.03-23.89-0.05-17.33-0.03-34.66-0.07-28.2-0.06-56.4-0.12-1.68 0-3.41 0-10.25-0.02-20.5-0.04-15.29-0.03-30.58-0.06c-1.67-0.01-1.67-0.01-3.38-0.01q-28.04-0.05-56.07-0.12-17.24-0.04-34.49-0.06-11.87-0.02-23.74-0.05-6.81-0.02-13.63-0.03-15.77-0.01-31.55-0.16-2.55-0.02-5.11-0.04-8.06-0.06-16.12-0.2-2.54-0.04-5.08-0.06c-10.53-0.09-19.2-0.82-28.23-6.72-2-2.06-2.64-3.18-2.94-6q-0.98 0-2 0c-3.89-8.11-4.69-17.71-1.94-26.37 2.03-4.47 5.24-8.44 8.94-11.63 2.22-0.72 2.22-0.72 4-1q0-0.98 0-2c8.7-4.35 23.22-2.17 32.93-2.19q2.66-0.01 5.32-0.02 5.69-0.03 11.38-0.05 9.05-0.03 18.1-0.08 17.63-0.08 35.26-0.15 22.33-0.08 44.66-0.19 7.5-0.03 15-0.06c18.06-0.06 36.12-0.13 54.18-0.6q2.16-0.05 4.32-0.1 2.93-0.07 5.86-0.16c1.64-0.04 1.64-0.04 3.31-0.09 2.9-0.13 2.9-0.13 5.68-2.31q1.48 0 3 0 0-0.98 0-2 1.39-1.11 2.81-2.25c4.64-3.77 6.21-7.77 6.94-13.62 0.52-7.66 0.08-13.21-4.93-19.37-4.81-4.65-11.13-6.89-17.74-6.87q-1.51 0-3.07 0-1.66 0.01-3.38 0.02-3.64 0-7.29 0-1.93 0.01-3.91 0.01-6.07 0.01-12.14 0-1.02-0.01-2.07-0.01-2.09 0-4.19-0.01-14.12-0.04-28.24 0-9.53 0.03-19.06-0.01-5.03-0.03-10.06 0-5.64 0.03-11.27-0.02-1.64 0.03-3.32 0.05c-8.96-0.14-15.09-3.47-21.73-9.39-6.17-6.72-8.08-14.37-7.81-23.3 0.93-6.54 4.22-12.22 8.46-17.23q0.99 0 2 0 0-0.98 0-2c4.85-4.16 8.29-5.74 14.75-5.64q1.12-0.01 2.27-0.02 3.76-0.03 7.52 0 2.71-0.01 5.43-0.03 7.41-0.04 14.83-0.02 7.9 0 15.8-0.04 15.24-0.06 30.49-0.06 17.52-0.01 35.03-0.06 32.91-0.09 65.83-0.11 20.34-0.02 40.68-0.06zm-357.36 418.79q1.6-0.01 3.25-0.02c1.76 0.01 1.76 0.01 3.57 0.02 1.87-0.01 1.87-0.01 3.79-0.01q5.22-0.01 10.43 0 5.63 0 11.25-0.01 11.03-0.01 22.05 0 8.97 0.01 17.94 0 1.26 0 2.57 0 2.59 0 5.19 0 24.32-0.01 48.64 0.01 20.85 0.01 41.7 0 24.21-0.02 48.43-0.01 2.58 0 5.17 0c1.27 0 1.27 0 2.57 0q8.94 0.01 17.89 0 10.92-0.01 21.83 0 5.57 0.01 11.13 0 6.05 0 12.1 0.02 1.73-0.01 3.51-0.02c8.64 0.04 17.47 0.52 25.72 3.27q0 0.98 0 2 0.99 0 2 0 1.31 2.23 2.56 4.5 0.71 1.25 1.44 2.53c2.4 7.15-1.03 15.1-3.12 22.03q-0.47 1.57-0.95 3.18-3.63 12.16-7.36 24.29-3.44 11.28-6.62 22.65-1.81 6.46-3.95 12.82-0.94 3.13-1.85 6.27c-2.77 9.41-5.69 18.77-8.71 28.1q-0.55 1.73-1.1 3.52c-1.98 6.02-3.58 10.82-8.34 15.11-4.89 2.46-8.43 3.38-13.98 3.38-1 0.01-1 0.01-2.02 0.02q-3.32 0.01-6.65-0.01-2.39 0-4.78 0.01-6.48 0.02-12.96 0-6.8 0-13.59 0.01-11.4 0-22.8-0.02-13.18-0.02-26.35 0.01-11.32 0.02-22.64 0-6.76 0-13.52 0.01-6.35 0.01-12.7-0.02-2.33 0-4.66 0.01-3.18 0.01-6.37-0.02-1.77 0-3.59 0c-4.03-0.45-6.76-1.63-10.39-3.38q0-0.99 0-2-0.98 0-2 0c-3.9-6.09-2.84-10.73-1.51-17.49q0.87-3.89 1.82-7.76c0.34-1.4 0.34-1.4 0.68-2.82 1.42-5.78 3.01-11.46 4.83-17.13 1.73-5.59 3.29-11.23 4.87-16.86q0.46-1.66 0.94-3.36c3.9-11.48 3.9-11.48 1.6-22.76-2.61-2.94-4.74-3.3-8.61-3.56q-3.37-0.04-6.74 0.01-1.84-0.02-3.72-0.03-3.99-0.02-7.98-0.01-6.31 0.03-12.61-0.03-1.06-0.01-2.15-0.02-2.17-0.01-4.34-0.03-3.32-0.02-6.64-0.04c-14.51-0.08-29.02-0.41-43.53-0.86q-4.03-0.13-8.05-0.23-5.62-0.14-11.24-0.32-1.66-0.04-3.36-0.08c-9.59-0.35-9.59-0.35-13.26-3.62q0-0.99 0-2-1.48-0.49-3-1 0-0.99 0-2-0.98 0-2 0c-4.73-8.05-7.22-15.75-5.44-25.13 2.78-8.91 8.44-14.43 16.44-18.87q0.89-0.52 1.81-1.06c2.64-1.13 4.59-1.19 7.46-1.19zm11.54-418.05q2-0.01 4-0.01 4.18-0.01 8.36-0.01 5.32 0.01 10.65-0.03 4.12-0.02 8.25-0.01 2.91-0.01 5.82-0.03c10.66 0.05 19.28 1.77 27.11 9.39 5.79 7.78 6.89 15.54 6 25-1.72 6.75-5.87 12.36-11 17q-0.99 0-2 0 0 0.98 0 2c-3.27 2.18-4.36 2.29-8.16 2.41-1.63 0.06-1.63 0.06-3.28 0.12-1.79 0.05-1.79 0.05-3.62 0.09q-1.87 0.06-3.79 0.11-5.36 0.13-10.72 0.22-3.86 0.08-7.72 0.19-6.99 0.17-13.99 0.25-2.76 0.05-5.52 0.12c-11.86 0.3-21.57 0.12-31.01-8.08-1.19-1.43-1.19-1.43-1.19-3.43q-0.98 0-2 0c-4.3-8.04-5.3-18.05-2.85-26.88 2.65-6.63 6.41-11.45 12.53-15.15 7.94-3.32 15.64-3.28 24.13-3.27zm-67.85 314.14q1.5-0.02 3.05-0.03c1.64-0.01 1.64-0.01 3.31-0.01q1.68-0.01 3.41-0.02 3.58-0.01 7.16-0.02 5.45-0.02 10.89-0.07 3.49-0.01 6.97-0.02c1.62-0.02 1.62-0.02 3.27-0.04 8.07 0.03 16.07 0.76 22.6 5.93 2.38 2.44 2.38 2.44 2.38 4.44q0.98 0 2 0c4.88 7.84 5 16.09 4 25-2.14 7.82-7.2 13.73-14 18-9.86 3.28-19.98 3.45-30.25 3.31-1.08-0.01-1.08-0.01-2.18-0.01-32.55-0.26-32.55-0.26-42.26-8.61-5.6-6.52-8.83-13.8-8.56-22.58 0.99-8.38 4.52-13.67 10.62-19.3 5.37-3.7 11.08-5.92 17.59-5.97zm-34.39-102.99q1.7 0 3.46-0.01 1.84-0.01 3.74-0.01 1.89 0 3.84-0.01 4.04-0.01 8.07-0.01 5.15 0 10.3-0.03 4.92-0.01 9.85-0.01 1.84-0.01 3.72-0.02c1.73 0 1.73 0 3.49 0.01q1.51-0.01 3.06-0.01c7.36 0.63 12.03 3.95 16.9 9.25 4.88 7.26 6.06 15.58 4.64 24.16-2.08 7.94-7.9 14.34-14.64 18.84-9.47 2.14-19.09 2.32-28.76 2.26q-3.26-0.01-6.52 0.01c-27.11 0.04-27.11 0.04-35.51-7.98-6.54-7.8-8.72-14.73-8.03-24.94 1.19-7.87 5.1-13.13 11.01-18.29 3.93-2.88 6.63-3.19 11.38-3.21z"/>
</svg>